<?xml version="1.0" standalone="no"?>
<!DOCTYPE svg PUBLIC "-//W3C//DTD SVG 20010904//EN"
 "http://www.w3.org/TR/2001/REC-SVG-20010904/DTD/svg10.dtd">
<svg version="1.0" xmlns="http://www.w3.org/2000/svg"
 width="500.000000pt" height="500.000000pt" viewBox="0 0 500.000000 500.000000"
 preserveAspectRatio="xMidYMid meet">
<metadata>
Created by potrace 1.14, written by Peter Selinger 2001-2017
</metadata>
<g transform="translate(0.000000,500.000000) scale(0.100000,-0.100000)"
fill="#000000" stroke="none">
<path d="M3362 4178 l-2 -828 -62 0 c-74 0 -118 -22 -145 -72 -22 -42 -31
-285 -13 -365 17 -77 57 -109 149 -118 l71 -7 0 -179 0 -179 -154 0 c-85 0
-161 -3 -170 -6 -12 -4 -16 -20 -16 -55 l0 -49 170 0 170 0 0 -60 0 -60 -150
0 c-139 0 -151 -1 -171 -21 -19 -19 -21 -30 -17 -113 5 -104 22 -146 71 -176
27 -17 51 -20 149 -20 l118 0 3 -937 2 -938 3 938 c1 616 5 937 12 937 7 0 10
-318 10 -935 l0 -935 805 0 805 0 0 2500 0 2500 -805 0 -805 0 0 -825 c0 -540
-3 -825 -10 -825 -6 0 -11 287 -13 828 l-2 827 -3 -827z m-2 -1103 l0 -175
-39 0 c-22 0 -48 8 -60 18 -21 16 -22 24 -19 162 3 143 3 145 28 157 14 7 40
13 58 13 l32 0 0 -175z m30 0 c0 -110 -4 -175 -10 -175 -6 0 -10 65 -10 175 0
110 4 175 10 175 6 0 10 -65 10 -175z m0 -465 c0 -113 -4 -180 -10 -180 -6 0
-10 67 -10 180 0 113 4 180 10 180 6 0 10 -67 10 -180z m0 -350 c0 -33 -4 -60
-10 -60 -6 0 -10 27 -10 60 0 33 4 60 10 60 6 0 10 -27 10 -60z m-30 -220 l0
-50 -93 0 c-111 0 -137 12 -137 66 l0 34 115 0 115 0 0 -50z m30 0 c0 -27 -4
-50 -10 -50 -5 0 -10 23 -10 50 0 28 5 50 10 50 6 0 10 -22 10 -50z"/>
<path d="M1720 3075 l0 -276 48 3 47 3 0 270 0 270 -47 3 -48 3 0 -276z"/>
<path d="M2032 3333 c-19 -9 -42 -33 -55 -57 -20 -37 -22 -55 -22 -201 0 -142
2 -164 21 -200 34 -66 64 -75 246 -75 l158 0 6 25 c3 14 3 36 0 50 l-6 25
-138 0 c-191 0 -182 -8 -182 175 0 183 -9 175 182 175 l138 0 6 25 c3 14 3 36
0 50 l-6 25 -158 0 c-125 0 -164 -4 -190 -17z"/>
<path d="M2524 3336 c-3 -8 -4 -29 -2 -48 l3 -33 162 -5 c99 -3 166 -9 173
-16 6 -6 10 -31 8 -55 l-3 -44 -170 -5 -170 -5 0 -160 0 -160 44 -3 c28 -2 47
1 52 10 5 7 9 57 9 111 l0 98 67 -3 68 -3 60 -107 60 -108 52 0 c28 0 55 4 58
10 3 5 -21 56 -54 112 l-59 101 31 16 c43 22 67 73 67 143 0 74 -24 134 -61
153 -40 21 -387 22 -395 1z"/>
<path d="M972 3158 l3 -183 47 1 c62 0 78 15 78 73 l1 46 21 -40 c11 -22 22
-41 23 -43 6 -7 65 29 65 38 0 6 6 9 13 7 21 -4 14 15 -52 151 l-65 132 -68 0
-68 0 2 -182z"/>
<path d="M1315 3210 c-36 -71 -62 -130 -58 -130 11 0 52 29 107 75 48 40 156
163 156 177 0 4 -31 8 -70 8 l-70 0 -65 -130z"/>
<path d="M1456 3144 c-40 -33 -56 -53 -56 -71 0 -19 -3 -22 -16 -15 -12 7 -44
-5 -118 -43 -108 -56 -209 -82 -271 -71 -48 9 -78 50 -71 96 l5 35 -19 -24
c-11 -13 -20 -36 -20 -53 0 -64 46 -110 130 -129 96 -22 288 51 433 164 93 73
110 91 112 117 1 16 -2 17 -18 8 -12 -6 -17 -6 -13 0 3 5 0 15 -8 21 -10 9
-26 1 -70 -35z"/>
<path d="M460 2401 c-5 -11 -10 -33 -10 -50 0 -28 3 -31 33 -31 26 0 250 81
266 96 2 2 -59 4 -137 4 -129 0 -142 -2 -152 -19z"/>
<path d="M929 2403 c-11 -13 -14 -70 -14 -272 l0 -256 47 -3 48 -3 2 210 3
211 105 -186 c138 -245 128 -234 200 -234 41 0 61 5 71 17 11 12 15 70 17 251
2 129 1 246 -3 259 -5 20 -12 23 -49 23 -31 0 -46 -5 -50 -16 -3 -9 -6 -102
-6 -207 l0 -192 -104 185 c-139 246 -125 230 -195 230 -42 0 -62 -5 -72 -17z"/>
<path d="M1621 2402 c-61 -31 -76 -75 -79 -242 -3 -174 12 -230 67 -268 33
-21 42 -22 199 -20 l165 3 20 27 c17 23 21 47 25 137 2 60 2 121 -2 136 l-7
26 -137 -3 -137 -3 0 -45 0 -45 93 -3 92 -3 0 -49 c0 -82 3 -80 -125 -80 -87
0 -117 3 -128 15 -27 27 -35 246 -12 308 9 23 37 27 202 27 l153 0 6 25 c3 14
3 36 0 50 l-6 25 -178 0 c-149 0 -182 -3 -211 -18z"/>
<path d="M2155 2407 c-3 -7 -4 -129 -3 -272 l3 -260 44 -3 c28 -2 47 1 52 10
10 15 12 498 3 522 -8 20 -92 23 -99 3z"/>
<path d="M2405 2396 c-13 -19 -15 -61 -13 -272 l3 -249 48 -3 47 -3 0 213 0
213 104 -185 c139 -248 133 -242 209 -238 88 4 87 1 84 298 l-2 245 -50 0 -50
0 -5 -199 -5 -200 -104 185 c-57 101 -110 192 -119 202 -11 12 -30 17 -73 17
-50 0 -61 -3 -74 -24z"/>
<path d="M436 2139 c-3 -34 -6 -93 -6 -132 l0 -69 -30 6 -30 6 17 -27 c29 -44
68 -53 232 -53 162 0 161 0 161 60 0 59 -2 60 -129 60 -64 0 -123 -4 -131 -9
-23 -15 -62 32 -64 76 l-1 38 45 3 c48 3 260 79 260 93 0 5 -71 9 -159 9
l-158 0 -7 -61z"/>
<path d="M1520 1380 c-19 -19 -20 -33 -20 -416 0 -239 4 -403 10 -414 18 -34
65 -40 321 -40 l249 0 0 -30 c0 -26 -4 -30 -27 -30 -52 0 -74 -11 -71 -34 3
-20 8 -21 201 -24 177 -2 198 -1 204 14 9 23 -22 44 -64 44 -30 0 -33 3 -33
30 l0 30 255 0 c210 0 261 3 285 15 38 20 39 45 3 45 -16 0 -308 0 -650 0
l-623 0 -6 24 c-3 13 -4 34 -2 46 l3 22 533 -1 c429 -1 533 1 528 11 -3 7 -9
21 -12 30 -6 17 -43 18 -528 20 l-521 3 -3 299 c-2 228 1 302 10 314 11 13 86
14 628 9 338 -4 616 -6 618 -7 1 0 2 -34 2 -76 0 -65 2 -75 16 -70 9 3 22 6
31 6 13 0 14 14 12 86 -3 71 -7 88 -23 100 -17 12 -123 14 -663 14 -630 0
-643 0 -663 -20z m710 -899 c0 -24 -5 -29 -27 -33 -49 -6 -63 1 -63 33 0 28 2
29 45 29 43 0 45 -1 45 -29z"/>
<path d="M2200 1208 c-6 -24 -19 -72 -30 -108 -10 -36 -22 -83 -26 -105 -7
-39 -6 -40 13 -22 29 26 36 21 8 -7 -28 -29 -40 -66 -31 -102 10 -37 27 -25
41 27 6 24 29 108 49 186 21 79 36 150 32 158 -3 8 -14 15 -25 15 -15 0 -23
-10 -31 -42z"/>
<path d="M1918 1137 c-88 -59 -123 -88 -123 -102 0 -14 33 -42 115 -97 120
-81 164 -96 158 -55 -2 15 -31 41 -98 85 -52 34 -95 64 -95 67 0 2 43 33 95
67 64 42 96 70 98 84 6 43 -27 32 -150 -49z"/>
<path d="M2302 1208 c-23 -23 -12 -36 83 -98 53 -35 98 -67 101 -71 3 -5 -34
-34 -81 -65 -47 -31 -85 -63 -85 -70 0 -7 -3 -19 -6 -28 -4 -11 -1 -16 11 -16
11 0 15 7 13 22 -2 11 3 23 11 26 9 3 11 -1 6 -17 -8 -27 11 -28 25 -1 6 11
14 19 18 16 4 -2 45 22 92 53 59 39 85 62 85 76 0 14 -36 43 -124 102 -68 46
-127 83 -131 83 -3 0 -11 -5 -18 -12z"/>
<path d="M2785 1128 c-11 -17 -26 -23 -56 -24 -35 0 -46 -6 -70 -35 -24 -27
-28 -40 -24 -67 5 -24 2 -34 -10 -38 -49 -19 -55 -120 -9 -151 19 -12 24 -22
19 -40 -13 -52 51 -120 103 -110 21 4 32 0 47 -19 13 -17 34 -27 62 -31 37 -5
46 -2 72 24 23 23 36 29 60 25 25 -3 37 2 67 32 31 31 35 41 30 67 -5 25 -1
35 19 51 21 16 25 28 25 73 0 44 -4 57 -24 72 -18 15 -22 26 -18 51 3 26 -2
38 -32 68 -31 31 -41 35 -67 30 -25 -5 -35 -1 -51 19 -16 21 -28 25 -73 25
-45 0 -57 -4 -70 -22z m95 -57 c0 -21 39 -36 95 -36 28 0 30 -2 27 -37 -1 -20
2 -39 8 -43 5 -3 10 -15 10 -26 0 -12 7 -19 20 -19 15 0 20 -7 20 -25 0 -15
-6 -25 -15 -25 -21 0 -49 -70 -36 -92 12 -20 -11 -43 -34 -34 -26 10 -95 -17
-95 -36 0 -25 -46 -24 -52 0 -6 21 -78 46 -92 32 -6 -6 -16 -4 -27 6 -15 13
-16 20 -6 35 9 14 9 21 -1 31 -6 6 -12 20 -12 30 0 10 -8 22 -17 25 -39 14
-42 40 -8 53 14 5 25 17 25 28 0 10 6 24 12 30 10 10 10 17 1 31 -10 15 -9 22
2 31 8 7 22 10 30 6 26 -10 95 17 95 36 0 13 8 18 25 18 18 0 25 -5 25 -19z"/>
<path d="M2814 981 c-101 -43 -73 -201 36 -201 52 0 76 13 95 50 23 45 19 85
-12 120 -30 33 -82 46 -119 31z m70 -70 c24 -26 17 -53 -16 -65 -48 -17 -78
32 -42 68 21 21 37 20 58 -3z"/>
<path d="M2110 840 c0 -13 7 -20 20 -20 11 0 20 1 20 3 0 1 -9 10 -20 20 -19
16 -20 16 -20 -3z"/>
<path d="M1604 635 c-4 -9 -2 -21 3 -26 14 -14 45 1 41 20 -4 22 -37 26 -44 6z"/>
<path d="M1684 639 c-10 -17 23 -46 37 -32 7 7 9 19 6 27 -7 18 -33 21 -43 5z"/>
<path d="M2072 641 c-8 -5 -12 -17 -10 -27 3 -17 14 -19 123 -19 109 0 120 2
123 19 6 29 -16 36 -123 36 -55 0 -106 -4 -113 -9z"/>
</g>
</svg>
